<svg width="300" height="300" version="1.1" viewBox="0 0 79.375 79.375" xmlns="http://www.w3.org/2000/svg">
 <g>
  <rect width="79.375" height="79.375" fill="#0d133c"/>
  <rect x="2.4685" y="2.4647" width="74.439" height="74.429" fill="#fff" stroke-width="6.7432"/>
  <g>
   <path d="m2.4969 12.67v0.5941l23.837 14.019h0.92305z" fill="#ff7d24"/>
   <path d="m12.604 2.44h0.55904l14.142 23.93v0.87065z" fill="#0646a5"/>
   <g transform="rotate(90 39.672 39.672)">
    <path d="m2.4969 12.67v0.5941l23.837 14.019h0.92305z" fill="#ff7d24"/>
    <path d="m12.604 2.44h0.55904l14.142 23.93v0.87065z" fill="#0646a5"/>
   </g>
  </g>
  <g transform="rotate(180 39.7 39.68)">
   <path d="m2.4969 12.67v0.5941l23.837 14.019h0.92305z" fill="#ff7d24"/>
   <path d="m12.604 2.44h0.55904l14.142 23.93v0.87065z" fill="#0646a5"/>
   <g transform="rotate(90 39.672 39.672)">
    <path d="m2.4969 12.67v0.5941l23.837 14.019h0.92305z" fill="#ff7d24"/>
    <path d="m12.604 2.44h0.55904l14.142 23.93v0.87065z" fill="#0646a5"/>
   </g>
  </g>
  <rect x="29.765" y="29.761" width="19.85" height="19.839" ry="2.8775" fill="#0d133c"/>
  <path d="m32.643 28.434c-2.3068 0-4.2051 1.8983-4.2051 4.2051v14.084c0 2.3068 1.8983 4.2051 4.2051 4.2051h14.096c2.3068 0 4.2051-1.8983 4.2051-4.2051v-14.084c0-2.3068-1.8983-4.2051-4.2051-4.2051z" fill="none" stroke="#eced9f" stroke-width=".13229"/>
  <rect x="3.7494" y="3.7482" width="71.913" height="71.886" ry="7.7089" fill="none" stroke="#eced9f" stroke-width=".13554"/>
 </g>
</svg>
